<svg xmlns="http://www.w3.org/2000/svg" version="1.1" xmlns:xlink="http://www.w3.org/1999/xlink" xmlns:svgjs="http://svgjs.dev/svgjs" width="1000" height="623" viewBox="0 0 1000 623"><g transform="matrix(1,0,0,1,-0.6060606060606233,0.2522267206477409)"><svg viewBox="0 0 396 247" data-background-color="#ffffff" preserveAspectRatio="xMidYMid meet" height="623" width="1000" xmlns="http://www.w3.org/2000/svg" xmlns:xlink="http://www.w3.org/1999/xlink"><defs></defs><g id="tight-bounds" transform="matrix(1,0,0,1,0.2400000000000091,-0.09999999999999432)"><svg viewBox="0 0 395.52 247.2" height="247.2" width="395.52"><g><svg></svg></g><g><svg viewBox="0 0 395.52 247.2" height="247.2" width="395.52"><g transform="matrix(1,0,0,1,75.54432,101.17143953303759)"><svg viewBox="0 0 244.43135999999998 44.85712093392482" height="44.85712093392482" width="244.43135999999998"><g><svg viewBox="0 0 244.43135999999998 44.85712093392482" height="44.85712093392482" width="244.43135999999998"><g><svg viewBox="0 0 244.43135999999998 44.85712093392482" height="44.85712093392482" width="244.43135999999998"><g><svg viewBox="0 0 244.43135999999998 44.85712093392482" height="44.85712093392482" width="244.43135999999998"><g><svg viewBox="0 0 244.43135999999998 44.85712093392482" height="44.85712093392482" width="244.43135999999998"><g><svg viewBox="0 0 244.43135999999998 44.85712093392482" height="44.85712093392482" width="244.43135999999998"><g transform="matrix(1,0,0,1,0,0)"><svg width="244.43135999999998" viewBox="3.5 -39.04999923706055 214.1300048828125 39.29999923706055" height="44.85712093392482" data-palette-color="#222222"><path d="M11.05 0L10.6 0Q8.55 0 6.93-1.13 5.3-2.25 4.4-4.25 3.5-6.25 3.5-8.85L3.5-8.85 3.5-36.95Q3.5-37.9 4.08-38.48 4.65-39.05 5.6-39.05L5.6-39.05Q6.55-39.05 7.13-38.48 7.7-37.9 7.7-36.95L7.7-36.95 7.7-8.85Q7.7-6.8 8.53-5.5 9.35-4.2 10.6-4.2L10.6-4.2 11.85-4.2Q12.7-4.2 13.2-3.63 13.7-3.05 13.7-2.1L13.7-2.1Q13.7-1.15 12.98-0.58 12.25 0 11.05 0L11.05 0ZM29.85 0.25L29.85 0.25Q25.8 0.25 22.67-1.55 19.55-3.35 17.75-6.5 15.95-9.65 15.95-13.65L15.95-13.65Q15.95-17.7 17.75-20.85 19.55-24 22.67-25.8 25.8-27.6 29.85-27.6L29.85-27.6Q33.85-27.6 36.95-25.8 40.05-24 41.85-20.85 43.65-17.7 43.7-13.65L43.7-13.65Q43.7-9.65 41.9-6.5 40.1-3.35 36.97-1.55 33.85 0.25 29.85 0.25ZM29.85-3.6L29.85-3.6Q32.65-3.6 34.85-4.9 37.05-6.2 38.27-8.47 39.5-10.75 39.5-13.65L39.5-13.65Q39.5-16.55 38.27-18.85 37.05-21.15 34.85-22.45 32.65-23.75 29.85-23.75L29.85-23.75Q27.05-23.75 24.85-22.45 22.65-21.15 21.37-18.85 20.1-16.55 20.1-13.65L20.1-13.65Q20.1-10.75 21.37-8.47 22.65-6.2 24.85-4.9 27.05-3.6 29.85-3.6ZM63.65 0.25L63.65 0.25Q59.6 0.25 56.47-1.55 53.35-3.35 51.55-6.5 49.75-9.65 49.75-13.65L49.75-13.65Q49.75-17.7 51.55-20.85 53.35-24 56.47-25.8 59.6-27.6 63.65-27.6L63.65-27.6Q67.65-27.6 70.75-25.8 73.85-24 75.65-20.85 77.45-17.7 77.5-13.65L77.5-13.65Q77.5-9.65 75.7-6.5 73.9-3.35 70.77-1.55 67.65 0.25 63.65 0.25ZM63.65-3.6L63.65-3.6Q66.45-3.6 68.65-4.9 70.85-6.2 72.07-8.47 73.3-10.75 73.3-13.65L73.3-13.65Q73.3-16.55 72.07-18.85 70.85-21.15 68.65-22.45 66.45-23.75 63.65-23.75L63.65-23.75Q60.85-23.75 58.65-22.45 56.45-21.15 55.17-18.85 53.9-16.55 53.9-13.65L53.9-13.65Q53.9-10.75 55.17-8.47 56.45-6.2 58.65-4.9 60.85-3.6 63.65-3.6ZM108.34 0L108.34 0Q107.39 0 106.79-0.6 106.19-1.2 106.19-2.1L106.19-2.1 106.19-14.85Q106.19-17.9 105.04-19.83 103.89-21.75 101.97-22.7 100.04-23.65 97.54-23.65L97.54-23.65Q95.24-23.65 93.34-22.75 91.44-21.85 90.34-20.28 89.24-18.7 89.24-16.65L89.24-16.65 86.39-16.65Q86.44-19.8 88.02-22.28 89.59-24.75 92.24-26.2 94.89-27.65 98.14-27.65L98.14-27.65Q101.69-27.65 104.47-26.18 107.24-24.7 108.84-21.85 110.44-19 110.44-14.85L110.44-14.85 110.44-2.1Q110.44-1.2 109.84-0.6 109.24 0 108.34 0ZM87.14 0L87.14 0Q86.19 0 85.59-0.58 84.99-1.15 84.99-2.1L84.99-2.1 84.99-25.2Q84.99-26.2 85.59-26.78 86.19-27.35 87.14-27.35L87.14-27.35Q88.09-27.35 88.67-26.78 89.24-26.2 89.24-25.2L89.24-25.2 89.24-2.1Q89.24-1.15 88.67-0.58 88.09 0 87.14 0ZM142.29 0L142.29 0Q141.34 0 140.74-0.6 140.14-1.2 140.14-2.1L140.14-2.1 140.14-14.85Q140.14-17.9 138.99-19.83 137.84-21.75 135.92-22.7 133.99-23.65 131.49-23.65L131.49-23.65Q129.19-23.65 127.29-22.75 125.39-21.85 124.29-20.28 123.19-18.7 123.19-16.65L123.19-16.65 120.34-16.65Q120.39-19.8 121.97-22.28 123.54-24.75 126.19-26.2 128.84-27.65 132.09-27.65L132.09-27.65Q135.64-27.65 138.42-26.18 141.19-24.7 142.79-21.85 144.39-19 144.39-14.85L144.39-14.85 144.39-2.1Q144.39-1.2 143.79-0.6 143.19 0 142.29 0ZM121.09 0L121.09 0Q120.14 0 119.54-0.58 118.94-1.15 118.94-2.1L118.94-2.1 118.94-25.2Q118.94-26.2 119.54-26.78 120.14-27.35 121.09-27.35L121.09-27.35Q122.04-27.35 122.62-26.78 123.19-26.2 123.19-25.2L123.19-25.2 123.19-2.1Q123.19-1.15 122.62-0.58 122.04 0 121.09 0ZM121.09-10.75L121.09-10.75Q120.14-10.75 119.54-11.35 118.94-11.95 118.94-12.9L118.94-12.9 118.94-36.9Q118.94-37.9 119.54-38.48 120.14-39.05 121.09-39.05L121.09-39.05Q122.04-39.05 122.62-38.48 123.19-37.9 123.19-36.9L123.19-36.9 123.19-12.9Q123.19-11.95 122.62-11.35 122.04-10.75 121.09-10.75ZM164.34 0L163.34 0Q160.74 0 158.69-1.25 156.64-2.5 155.46-4.7 154.29-6.9 154.29-9.65L154.29-9.65 154.29-33.9Q154.29-34.85 154.86-35.45 155.44-36.05 156.39-36.05L156.39-36.05Q157.29-36.05 157.89-35.45 158.49-34.85 158.49-33.9L158.49-33.9 158.49-9.65Q158.49-7.3 159.86-5.78 161.24-4.25 163.34-4.25L163.34-4.25 164.79-4.25Q165.64-4.25 166.19-3.65 166.74-3.05 166.74-2.1L166.74-2.1Q166.74-1.15 166.06-0.58 165.39 0 164.34 0L164.34 0ZM163.69-22.7L151.34-22.7Q150.49-22.7 149.94-23.2 149.39-23.7 149.39-24.5L149.39-24.5Q149.39-25.3 149.94-25.83 150.49-26.35 151.34-26.35L151.34-26.35 163.69-26.35Q164.54-26.35 165.09-25.83 165.64-25.3 165.64-24.5L165.64-24.5Q165.64-23.7 165.09-23.2 164.54-22.7 163.69-22.7L163.69-22.7ZM185.54 0.25L185.54 0.25Q181.44 0.25 178.29-1.53 175.14-3.3 173.34-6.45 171.54-9.6 171.54-13.65L171.54-13.65Q171.54-17.75 173.24-20.88 174.94-24 177.91-25.8 180.89-27.6 184.79-27.6L184.79-27.6Q188.64-27.6 191.44-25.88 194.24-24.15 195.76-21.1 197.29-18.05 197.29-14.15L197.29-14.15Q197.29-13.3 196.74-12.78 196.19-12.25 195.34-12.25L195.34-12.25 174.44-12.25 174.44-15.7 195.54-15.7 193.44-14.2Q193.44-16.95 192.39-19.15 191.34-21.35 189.41-22.6 187.49-23.85 184.79-23.85L184.79-23.85Q181.94-23.85 179.84-22.53 177.74-21.2 176.59-18.9 175.44-16.6 175.44-13.65L175.44-13.65Q175.44-10.7 176.74-8.43 178.04-6.15 180.31-4.83 182.59-3.5 185.54-3.5L185.54-3.5Q187.24-3.5 189.01-4.1 190.79-4.7 191.84-5.6L191.84-5.6Q192.44-6.1 193.21-6.13 193.99-6.15 194.54-5.7L194.54-5.7Q195.24-5.05 195.26-4.28 195.29-3.5 194.64-2.95L194.64-2.95Q192.94-1.55 190.41-0.65 187.89 0.25 185.54 0.25ZM215.23 0L214.23 0Q211.63 0 209.58-1.25 207.53-2.5 206.36-4.7 205.18-6.9 205.18-9.65L205.18-9.65 205.18-33.9Q205.18-34.85 205.76-35.45 206.33-36.05 207.28-36.05L207.28-36.05Q208.18-36.05 208.78-35.45 209.38-34.85 209.38-33.9L209.38-33.9 209.38-9.65Q209.38-7.3 210.76-5.78 212.13-4.25 214.23-4.25L214.23-4.25 215.68-4.25Q216.53-4.25 217.08-3.65 217.63-3.05 217.63-2.1L217.63-2.1Q217.63-1.15 216.96-0.58 216.28 0 215.23 0L215.23 0ZM214.58-22.7L202.23-22.7Q201.38-22.7 200.83-23.2 200.28-23.7 200.28-24.5L200.28-24.5Q200.28-25.3 200.83-25.83 201.38-26.35 202.23-26.35L202.23-26.35 214.58-26.35Q215.43-26.35 215.98-25.83 216.53-25.3 216.53-24.5L216.53-24.5Q216.53-23.7 215.98-23.2 215.43-22.7 214.58-22.7L214.58-22.7Z" opacity="1" transform="matrix(1,0,0,1,0,0)" fill="#222222" class="undefined-text-0" data-fill-palette-color="primary" id="text-0"></path></svg></g></svg></g></svg></g></svg></g></svg></g></svg></g></svg></g><path d="M187.286 95.171L187.286 33.718 7.522 33.718 7.522 213.482 187.286 213.482 187.286 152.029 183.241 152.029 183.241 209.437 11.567 209.437 11.567 37.763 183.241 37.763 183.241 95.171Z" fill="#222222" stroke="transparent" data-fill-palette-color="primary"></path></svg></g></svg><rect width="395.52" height="247.2" fill="none" stroke="none" visibility="hidden"></rect></g></svg></g></svg>